<svg id="visual" viewBox="0 0 400 400" width="400" height="400" xmlns="http://www.w3.org/2000/svg" xmlns:xlink="http://www.w3.org/1999/xlink" version="1.1"><rect x="0" y="0" width="400" height="400" fill="#931C1C"></rect><path d="M0 296L57 246L114 274L171 245L229 265L286 243L343 272L400 253L400 401L343 401L286 401L229 401L171 401L114 401L57 401L0 401Z" fill="#f5730a"></path><path d="M0 289L57 287L114 268L171 270L229 304L286 278L343 306L400 263L400 401L343 401L286 401L229 401L171 401L114 401L57 401L0 401Z" fill="#da5b09"></path><path d="M0 340L57 329L114 338L171 321L229 316L286 331L343 336L400 316L400 401L343 401L286 401L229 401L171 401L114 401L57 401L0 401Z" fill="#be4407"></path><path d="M0 322L57 340L114 334L171 340L229 360L286 323L343 353L400 336L400 401L343 401L286 401L229 401L171 401L114 401L57 401L0 401Z" fill="#a32d04"></path><path d="M0 365L57 372L114 382L171 357L229 355L286 357L343 358L400 375L400 401L343 401L286 401L229 401L171 401L114 401L57 401L0 401Z" fill="#871400"></path></svg>